<svg id="visual" viewBox="0 0 900 600" width="900" height="600" xmlns="http://www.w3.org/2000/svg" xmlns:xlink="http://www.w3.org/1999/xlink" version="1.1"><rect x="0" y="0" width="900" height="600" fill="#002233"></rect><path d="M0 383L13.7 381C27.3 379 54.7 375 82 382.8C109.3 390.7 136.7 410.3 163.8 415C191 419.7 218 409.3 245.2 403.7C272.3 398 299.7 397 327 392C354.3 387 381.7 378 409 374.5C436.3 371 463.7 373 491 381.8C518.3 390.7 545.7 406.3 573 409.3C600.3 412.3 627.7 402.7 654.8 396.5C682 390.3 709 387.7 736.2 379.8C763.3 372 790.7 359 818 362.8C845.3 366.7 872.7 387.3 886.3 397.7L900 408L900 601L886.3 601C872.7 601 845.3 601 818 601C790.7 601 763.3 601 736.2 601C709 601 682 601 654.8 601C627.7 601 600.3 601 573 601C545.7 601 518.3 601 491 601C463.7 601 436.3 601 409 601C381.7 601 354.3 601 327 601C299.7 601 272.3 601 245.2 601C218 601 191 601 163.8 601C136.7 601 109.3 601 82 601C54.7 601 27.3 601 13.7 601L0 601Z" fill="#00cc99"></path><path d="M0 413L13.7 410.2C27.3 407.3 54.7 401.7 82 397C109.3 392.3 136.7 388.7 163.8 397.5C191 406.3 218 427.7 245.2 436C272.3 444.3 299.7 439.7 327 429.7C354.3 419.7 381.7 404.3 409 401.2C436.3 398 463.7 407 491 413.5C518.3 420 545.7 424 573 418.7C600.3 413.3 627.7 398.7 654.8 404.5C682 410.3 709 436.7 736.2 438.3C763.3 440 790.7 417 818 409.5C845.3 402 872.7 410 886.3 414L900 418L900 601L886.3 601C872.7 601 845.3 601 818 601C790.7 601 763.3 601 736.2 601C709 601 682 601 654.8 601C627.7 601 600.3 601 573 601C545.7 601 518.3 601 491 601C463.7 601 436.3 601 409 601C381.7 601 354.3 601 327 601C299.7 601 272.3 601 245.2 601C218 601 191 601 163.8 601C136.7 601 109.3 601 82 601C54.7 601 27.3 601 13.7 601L0 601Z" fill="#00c4cf"></path><path d="M0 460L13.7 458.7C27.3 457.3 54.7 454.7 82 446.8C109.3 439 136.7 426 163.8 428.8C191 431.7 218 450.3 245.2 463.8C272.3 477.3 299.7 485.7 327 479.5C354.3 473.3 381.7 452.7 409 450.7C436.3 448.7 463.7 465.3 491 474.2C518.3 483 545.7 484 573 479.7C600.3 475.3 627.7 465.7 654.8 465.3C682 465 709 474 736.2 474C763.3 474 790.7 465 818 458.2C845.3 451.3 872.7 446.7 886.3 444.3L900 442L900 601L886.3 601C872.7 601 845.3 601 818 601C790.7 601 763.3 601 736.2 601C709 601 682 601 654.8 601C627.7 601 600.3 601 573 601C545.7 601 518.3 601 491 601C463.7 601 436.3 601 409 601C381.7 601 354.3 601 327 601C299.7 601 272.3 601 245.2 601C218 601 191 601 163.8 601C136.7 601 109.3 601 82 601C54.7 601 27.3 601 13.7 601L0 601Z" fill="#00b5ef"></path><path d="M0 475L13.7 473.8C27.3 472.7 54.7 470.3 82 477.8C109.3 485.3 136.7 502.7 163.8 510.2C191 517.7 218 515.3 245.2 513.5C272.3 511.7 299.7 510.3 327 506.7C354.3 503 381.7 497 409 489C436.3 481 463.7 471 491 465C518.3 459 545.7 457 573 464C600.3 471 627.7 487 654.8 498C682 509 709 515 736.2 514C763.3 513 790.7 505 818 493.8C845.3 482.7 872.7 468.3 886.3 461.2L900 454L900 601L886.3 601C872.7 601 845.3 601 818 601C790.7 601 763.3 601 736.2 601C709 601 682 601 654.8 601C627.7 601 600.3 601 573 601C545.7 601 518.3 601 491 601C463.7 601 436.3 601 409 601C381.7 601 354.3 601 327 601C299.7 601 272.3 601 245.2 601C218 601 191 601 163.8 601C136.7 601 109.3 601 82 601C54.7 601 27.3 601 13.7 601L0 601Z" fill="#00a0f9"></path><path d="M0 538L13.7 536.5C27.3 535 54.7 532 82 532.5C109.3 533 136.7 537 163.8 537.3C191 537.7 218 534.3 245.2 531.3C272.3 528.3 299.7 525.7 327 522.7C354.3 519.7 381.7 516.3 409 521C436.3 525.7 463.7 538.3 491 540.5C518.3 542.7 545.7 534.3 573 530C600.3 525.7 627.7 525.3 654.8 523.5C682 521.7 709 518.3 736.2 518.2C763.3 518 790.7 521 818 518C845.3 515 872.7 506 886.3 501.5L900 497L900 601L886.3 601C872.7 601 845.3 601 818 601C790.7 601 763.3 601 736.2 601C709 601 682 601 654.8 601C627.7 601 600.3 601 573 601C545.7 601 518.3 601 491 601C463.7 601 436.3 601 409 601C381.7 601 354.3 601 327 601C299.7 601 272.3 601 245.2 601C218 601 191 601 163.8 601C136.7 601 109.3 601 82 601C54.7 601 27.3 601 13.7 601L0 601Z" fill="#0086ff"></path><path d="M0 580L13.7 572.8C27.3 565.7 54.7 551.3 82 549.5C109.3 547.7 136.7 558.3 163.8 558C191 557.7 218 546.3 245.2 541.8C272.3 537.3 299.7 539.7 327 546.8C354.3 554 381.7 566 409 566.5C436.3 567 463.7 556 491 551.8C518.3 547.7 545.7 550.3 573 552C600.3 553.7 627.7 554.3 654.8 557C682 559.7 709 564.3 736.2 566.7C763.3 569 790.7 569 818 568.3C845.3 567.7 872.7 566.3 886.3 565.7L900 565L900 601L886.3 601C872.7 601 845.3 601 818 601C790.7 601 763.3 601 736.2 601C709 601 682 601 654.8 601C627.7 601 600.3 601 573 601C545.7 601 518.3 601 491 601C463.7 601 436.3 601 409 601C381.7 601 354.3 601 327 601C299.7 601 272.3 601 245.2 601C218 601 191 601 163.8 601C136.7 601 109.3 601 82 601C54.7 601 27.3 601 13.7 601L0 601Z" fill="#0066ff"></path></svg>